#!OML:ASF H:\MichaelJackson\Top Level 1\Subject 1\Session 1\male.ASF
:FULLY-SPECIFIED
:DEGREES
502
root -13.3251 16.7154 -33.6936 6.99011 24.8958 -0.654106
lowerback -8.35506 -9.13185 4.75289
upperback 5.54433 -12.6147 -3.07375
thorax 8.83439 -5.74276 -7.7112
lowerneck -18.4329 0.32474 -2.88948
upperneck -3.4141 0.806161 7.45749
head 2.0835 0.700125 3.07631
rclavicle -1.11319e-013 6.36111e-015
rhumerus -36.4044 27.4578 -70.6199
rradius 118.979
rwrist -3.24475
rhand -53.1419 68.5623
rfingers 7.12502
rthumb -25.6016 40.2632
lclavicle -1.11319e-013 6.36111e-015
lhumerus -30.0018 -29.0737 92.2402
lradius 54.4837
lwrist 13.7776
lhand 27.2631 22.5502
lfingers 7.12502
lthumb 51.2304 43.1021
rfemur -30.022 -19.1043 10.4374
rtibia 57.4288
rfoot 3.64718 -26.46
rtoes -11.6941
lfemur -27.9821 27.2212 -22.0175
ltibia 44.3404
lfoot -20.8578 6.27914
ltoes 35.4392
503
root -13.3542 16.7116 -33.7042 7.70636 24.2673 -0.0159893
lowerback -8.5745 -8.91595 4.34518
upperback 5.31724 -12.2647 -3.19449
thorax 8.81825 -5.59695 -7.60765
lowerneck -18.5534 0.34934 -2.44916
upperneck -3.1862 0.75331 6.90284
head 2.17985 0.655286 2.80164
rclavicle -1.08934e-013 -1.43125e-014
rhumerus -35.1211 29.66 -67.4393
rradius 119.388
rwrist -3.88122
rhand -53.8825 69.2619
rfingers 7.12502
rthumb -26.3109 41.0667
lclavicle -1.08934e-013 -1.43125e-014
lhumerus -30.4945 -29.9093 92.5903
lradius 54.8247
lwrist 14.8628
lhand 26.4773 23.3705
lfingers 7.12502
lthumb 50.5139 44.3192
rfemur -30.2448 -18.873 9.62265
rtibia 57.1383
rfoot 2.828 -24.5527
rtoes -26.8568
lfemur -28.4383 26.4573 -22.2996
ltibia 44.6825
lfoot -20.6095 5.7842
ltoes 36.2658
504
root -13.3869 16.709 -33.7065 8.22154 23.5795 0.576338
lowerback -8.75325 -8.69266 3.89622
upperback 5.17492 -11.8973 -3.3293
thorax 8.87722 -5.43798 -7.49569
lowerneck -18.7211 0.352778 -2.07593
upperneck -2.91211 0.682029 6.43656
head 2.30283 0.60596 2.57265
rclavicle 1.23246e-014 1.74931e-014
rhumerus -34.0448 31.6837 -64.1292
rradius 119.943
rwrist -4.66405
rhand -54.3743 69.9037
rfingers 7.12502
rthumb -26.7815 41.7797
lclavicle 1.23246e-014 1.74931e-014
lhumerus -30.9606 -30.8342 92.937
lradius 54.9319
lwrist 15.3977
lhand 25.8865 23.6738
lfingers 7.12502
lthumb 49.9738 44.9102
rfemur -30.2075 -18.2806 8.67522
rtibia 56.8868
rfoot 2.94217 -22.4498
rtoes -31.0805
lfemur -28.438 25.2591 -22.0375
ltibia 44.9716
lfoot -20.3113 4.67804
ltoes 37.4816
505
root -13.4187 16.7029 -33.7181 9.01925 22.9212 1.28008
lowerback -9.0685 -8.47843 3.50234
upperback 4.92022 -11.5479 -3.49091
thorax 8.87003 -5.28909 -7.4496
lowerneck -18.8389 0.371738 -1.79483
upperneck -2.70234 0.652239 6.03334
head 2.39373 0.578248 2.38479
rclavicle -1.30005e-013 3.18055e-015
rhumerus -33.1602 33.6408 -60.718
rradius 120.627
rwrist -5.57964
rhand -54.9234 72.5153
rfingers 7.12502
rthumb -27.3069 44.4729
lclavicle -1.30005e-013 3.18055e-015
lhumerus -31.3999 -31.8016 93.2458
lradius 55.0531
lwrist 15.7853
lhand 25.9872 24.2906
lfingers 7.12502
lthumb 50.066 45.4786
rfemur -30.6173 -17.6312 7.55379
rtibia 56.6702
rfoot 3.50611 -20.2606
rtoes -34.58
lfemur -28.7006 23.7929 -21.8892
ltibia 45.1437
lfoot -19.3834 3.38819
ltoes 36.4042
506
root -13.4543 16.719 -33.7169 9.47562 22.2526 1.92821
lowerback -9.24681 -8.27888 3.02338
upperback 4.77603 -11.201 -3.67497
thorax 8.91435 -5.14108 -7.36809
lowerneck -18.8884 0.376695 -1.53114
upperneck -2.51233 0.608199 5.65415
head 2.46664 0.542873 2.2065
rclavicle 1.68967e-014 -9.54166e-015
rhumerus -31.83 35.0765 -56.9182
rradius 121.021
rwrist -5.90201
rhand -55.2994 70.9204
rfingers 7.12502
rthumb -27.6664 42.9351
lclavicle 1.68967e-014 -9.54166e-015
lhumerus -31.8771 -32.7837 93.6047
lradius 54.9039
lwrist 15.2829
lhand 25.0989 22.7364
lfingers 7.12502
lthumb 49.2519 44.3432
rfemur -30.5434 -16.9218 6.35013
rtibia 56.3722
rfoot 2.30826 -18.6503
rtoes -34.9
lfemur -28.2317 22.0114 -21.1023
ltibia 45.1266
lfoot -18.1986 0.942214
ltoes 36.3711
507
root -13.4904 16.7308 -33.7115 9.89488 21.642 2.52508
lowerback -9.48737 -8.10047 2.62787
upperback 4.66148 -10.8936 -3.86119
thorax 9.00418 -5.00381 -7.3496
lowerneck -18.8854 0.366047 -1.31224
upperneck -2.42175 0.556593 5.31287
head 2.49618 0.503303 2.04699
rclavicle -1.61016e-013 -1.27222e-014
rhumerus -30.3377 36.4609 -52.8629
rradius 121.313
rwrist -6.6351
rhand -56.375 68.7709
rfingers 7.12502
rthumb -28.6945 40.955
lclavicle -1.61016e-013 -1.27222e-014
lhumerus -32.2343 -33.6976 93.9025
lradius 54.6783
lwrist 14.6104
lhand 25.9591 23.0213
lfingers 7.12502
lthumb 50.0403 44.2229
rfemur -30.3639 -15.9104 5.09094
rtibia 56.0397
rfoot 0.158913 -16.6441
rtoes -29.0036
lfemur -27.7106 19.9435 -20.0597
ltibia 44.8407
lfoot -16.6343 -1.72739
ltoes 34.4338
508
root -13.5276 16.7426 -33.7124 10.6545 21.041 3.18503
lowerback -9.97652 -7.94155 2.26663
upperback 4.44095 -10.6164 -4.05225
thorax 9.10935 -4.87856 -7.3869
lowerneck -19.0227 0.392314 -1.08921
upperneck -2.24248 0.547557 5.01214
head 2.58112 0.489327 1.90797
rclavicle -2.14687e-014 1.27222e-014
rhumerus -28.3632 37.5883 -48.6255
rradius 121.358
rwrist -7.63639
rhand -57.3915 67.6996
rfingers 7.12502
rthumb -29.6652 40.0522
lclavicle -2.14687e-014 1.27222e-014
lhumerus -32.4105 -34.4507 94.1191
lradius 54.2476
lwrist 13.8031
lhand 26.7269 23.0332
lfingers 7.12502
lthumb 50.7417 43.8576
rfemur -30.5662 -14.8852 3.80426
rtibia 55.5941
rfoot 0.44795 -14.0812
rtoes -18.6462
lfemur -27.4786 17.457 -19.0097
ltibia 44.2282
lfoot -15.0087 -5.02974
ltoes 33.4649
509
root -13.5637 16.7566 -33.7074 11.4205 20.4671 3.89272
lowerback -10.5538 -7.80033 1.88633
upperback 4.21914 -10.3536 -4.27182
thorax 9.25936 -4.7576 -7.45878
lowerneck -19.074 0.414297 -0.876751
upperneck -2.07618 0.536332 4.71143
head 2.6464 0.472831 1.76942
rclavicle -1.98785e-016 6.52014e-014
rhumerus -26.5487 38.4532 -44.3615
rradius 121.484
rwrist -8.9422
rhand -58.3742 67.241
rfingers 7.12502
rthumb -30.6028 39.7646
lclavicle -1.98785e-016 6.52014e-014
lhumerus -32.8465 -35.3651 94.5281
lradius 53.5422
lwrist 11.9498
lhand 27.0748 21.8461
lfingers 7.12502
lthumb 51.0589 42.4945
rfemur -30.7319 -14.0993 2.44212
rtibia 55.0003
rfoot -1.05751 -11.526
rtoes -6.12485
lfemur -27.0636 14.7507 -17.8345
ltibia 43.2087
lfoot -13.4186 -8.96348
ltoes 32.3187
510
root -13.5967 16.7774 -33.6941 12.1688 19.9583 4.52144
lowerback -11.1895 -7.6804 1.59396
upperback 4.00396 -10.1288 -4.47808
thorax 9.43202 -4.64876 -7.57681
lowerneck -19.1945 0.45089 -0.58591
upperneck -1.8773 0.528296 4.3604
head 2.73561 0.456505 1.60149
rclavicle -7.21588e-014 9.54166e-015
rhumerus -24.8355 39.1833 -39.9776
rradius 121.626
rwrist -10.6736
rhand -59.4382 68.0556
rfingers 7.12502
rthumb -31.6169 40.7735
lclavicle -7.21588e-014 9.54166e-015
lhumerus -33.2543 -35.9721 94.8287
lradius 53.1903
lwrist 10.9738
lhand 25.7848 19.1142
lfingers 7.12502
lthumb 49.8807 40.3993
rfemur -30.8434 -13.3211 1.16429
rtibia 54.2642
rfoot -2.28333 -8.98306
rtoes 11.8889
lfemur -26.5713 12.0229 -16.47
ltibia 41.852
lfoot -11.8657 -13.5996
ltoes 32.0506
511
root -13.6306 16.7927 -33.6735 12.599 19.522 5.03062
lowerback -11.6145 -7.58447 1.31277
upperback 3.88736 -9.93574 -4.6678
thorax 9.58789 -4.55595 -7.66097
lowerneck -19.373 0.510061 -0.302919
upperneck -1.63788 0.546241 4.09452
head 2.85037 0.457791 1.4673
rclavicle 3.79679e-014 9.54166e-015
rhumerus -22.6891 39.4449 -35.2916
rradius 121.294
rwrist -11.9978
rhand -60.5589 73.7231
rfingers 7.12502
rthumb -32.6838 46.6567
lclavicle 3.79679e-014 9.54166e-015
lhumerus -33.7372 -36.5629 95.1672
lradius 52.9074
lwrist 10.1738
lhand 27.0241 19.7536
lfingers 7.12502
lthumb 51.0127 40.4279
rfemur -30.4439 -12.2187 -0.0751624
rtibia 53.3799
rfoot -3.1488 -6.43293
rtoes 27.8023
lfemur -25.6662 9.11385 -14.7698
ltibia 40.1013
lfoot -8.02747 -18.9112
ltoes 43.6836
